<?xml version="1.0" standalone="no"?>
<!DOCTYPE svg PUBLIC "-//W3C//DTD SVG 20010904//EN"
 "http://www.w3.org/TR/2001/REC-SVG-20010904/DTD/svg10.dtd">
<svg version="1.0" xmlns="http://www.w3.org/2000/svg"
 width="500.000000pt" height="500.000000pt" viewBox="0 0 500.000000 500.000000"
 preserveAspectRatio="xMidYMid meet">
<metadata>
Created by potrace 1.14, written by Peter Selinger 2001-2017
</metadata>
<g transform="translate(0.000000,500.000000) scale(0.100000,-0.100000)"
fill="#000000" stroke="none">
<path d="M4920 4509 c-122 -42 -160 -70 -128 -91 17 -11 49 -5 136 27 66 26
72 30 72 56 0 34 -6 34 -80 8z"/>
<path d="M650 4474 c-66 -24 -115 -68 -146 -129 -23 -49 -26 -63 -22 -137 6
-130 59 -213 174 -269 46 -23 63 -36 59 -47 -3 -8 -10 -35 -17 -61 -6 -25 -12
-47 -13 -48 -1 -2 -23 4 -49 13 -34 12 -69 15 -119 12 -195 -13 -319 -181
-265 -359 14 -50 69 -114 119 -139 97 -50 234 -2 275 96 27 65 8 150 -44 197
-48 44 -129 43 -181 -1 -41 -35 -53 -77 -35 -127 26 -78 101 -100 155 -46 52
53 28 131 -41 131 -31 0 -70 -30 -70 -53 0 -20 30 -58 41 -51 6 3 7 19 4 35
-5 21 -2 31 9 35 35 14 62 -46 34 -74 -7 -7 -24 -12 -39 -12 -76 0 -89 109
-18 145 36 19 63 19 99 0 39 -20 60 -63 60 -121 0 -40 -5 -51 -38 -84 -48 -49
-103 -66 -159 -51 -130 35 -190 199 -118 317 38 61 108 109 182 124 48 10 66
10 117 -5 77 -21 86 -29 86 -75 0 -21 9 -66 20 -101 52 -170 195 -293 374
-321 58 -10 76 -16 76 -29 0 -39 43 -177 78 -253 99 -211 244 -356 455 -456
134 -64 228 -84 392 -84 152 0 248 18 370 71 148 65 319 204 395 322 30 46 34
49 54 36 35 -23 110 -29 125 -11 15 17 9 44 -11 50 -7 3 -34 7 -60 11 -28 4
-48 11 -48 18 0 7 -13 21 -30 30 -16 10 -30 24 -30 30 0 28 60 152 72 149 7
-2 23 -13 36 -25 30 -28 57 -13 58 34 0 19 8 74 17 123 78 413 -132 827 -513
1013 -121 59 -222 84 -365 90 -248 11 -471 -66 -658 -229 l-58 -50 -58 31
c-226 120 -471 56 -626 -163 -25 -35 -46 -32 -118 13 -119 76 -162 243 -91
358 82 132 281 138 343 10 56 -115 -11 -227 -128 -214 -34 4 -51 12 -68 34
-42 52 -23 129 38 148 27 9 73 -23 77 -54 7 -44 -41 -68 -69 -35 -11 14 -10
18 5 30 10 7 24 15 30 17 23 9 -12 30 -38 23 -50 -12 -46 -101 6 -118 62 -21
119 42 98 107 -14 44 -44 65 -90 65 -83 0 -134 -72 -111 -157 21 -76 101 -118
181 -94 82 24 123 82 123 172 0 147 -149 245 -293 193z m1423 -159 c1 -5 -13
-11 -30 -13 -31 -3 -42 6 -26 22 10 10 53 3 56 -9z m-113 -10 c0 -18 -48 -31
-62 -17 -8 8 -7 13 3 16 8 2 21 7 29 9 25 9 30 8 30 -8z m225 6 c3 -5 0 -13
-5 -16 -15 -9 -60 3 -60 15 0 13 57 13 65 1z m99 -16 c17 -9 41 -17 55 -19 44
-6 81 -25 81 -41 0 -8 -4 -15 -10 -15 -5 0 -1 -15 10 -32 24 -40 27 -126 6
-167 -31 -60 -115 -111 -181 -111 -56 1 -143 66 -164 123 -15 39 -14 101 3
140 18 43 75 97 109 104 16 3 31 12 34 19 7 18 21 17 57 -1z m-431 -12 c12
-11 -14 -33 -39 -33 -28 0 -31 15 -6 29 20 12 36 14 45 4z m-117 -69 c-22 -16
-46 -19 -46 -5 0 5 10 15 23 24 29 20 51 2 23 -19z m765 -4 c16 -9 28 -40 14
-40 -16 0 -55 26 -55 37 0 16 14 17 41 3z m-845 -31 c6 -11 -31 -48 -48 -49
-14 0 -9 23 9 42 19 21 29 23 39 7z m950 -33 c28 -22 6 -41 -24 -20 -12 8 -22
19 -22 25 0 14 23 11 46 -5z m-771 -35 c140 -63 148 -257 15 -330 -111 -62
-238 -5 -271 121 -30 109 64 228 181 228 19 0 53 -9 75 -19z m-277 -30 c-7
-11 -21 -21 -30 -21 -24 0 -23 9 4 37 26 28 46 16 26 -16z m1137 -1 c10 -11
15 -23 12 -27 -10 -9 -57 18 -57 34 0 19 24 16 45 -7z m-1202 -58 c7 -9 -28
-52 -42 -52 -16 0 -13 21 6 42 17 19 29 23 36 10z m1281 -11 c27 -30 9 -47
-20 -20 -13 12 -21 26 -18 30 8 14 19 11 38 -10z m86 -115 c-13 -13 -55 27
-45 44 5 8 14 5 31 -11 17 -16 21 -26 14 -33z m-1430 32 c-1 -18 -25 -48 -39
-48 -14 0 -14 15 1 40 14 22 38 27 38 8z m1312 -58 c85 -24 143 -108 136 -196
-12 -145 -167 -220 -288 -140 -97 64 -108 209 -22 289 28 27 90 56 122 57 8 0
32 -5 52 -10z m172 -35 c21 -33 11 -53 -15 -29 -19 17 -26 54 -10 54 5 0 16
-11 25 -25z m-1544 -13 c0 -19 -18 -42 -32 -42 -12 0 -9 35 4 48 17 17 28 15
28 -6z m1594 -95 c10 -28 2 -47 -13 -31 -5 5 -13 22 -17 38 -9 37 17 32 30 -7z
m-1641 7 c9 -10 -15 -54 -30 -54 -16 0 -17 14 -3 41 11 19 22 24 33 13z m340
-30 c8 -9 -21 -64 -33 -64 -13 0 -13 26 0 51 11 19 22 24 33 13z m101 -34 c18
-17 -4 -29 -34 -18 -30 10 -36 19 -23 31 7 8 43 -1 57 -13z m84 -26 c24 -7 31
-34 8 -34 -25 0 -46 12 -46 26 0 16 5 16 38 8z m1150 -33 c3 -24 0 -32 -10
-29 -7 3 -14 19 -16 37 -3 24 0 32 10 29 7 -3 14 -19 16 -37z m-1714 20 c8
-13 -11 -61 -24 -61 -11 0 -13 30 -4 54 7 18 20 21 28 7z m326 -51 c0 -31 -6
-36 -29 -21 -17 11 -5 51 15 51 9 0 14 -11 14 -30z m356 16 c10 -8 16 -17 12
-21 -9 -10 -61 9 -66 23 -5 17 30 15 54 -2z m98 -32 c18 -7 22 -34 5 -34 -17
0 -49 20 -49 30 0 11 21 13 44 4z m-354 -51 c0 -7 -6 -13 -13 -13 -21 0 -51
26 -43 38 9 15 56 -6 56 -25z m455 15 c26 -12 32 -23 16 -33 -11 -6 -61 14
-61 25 0 7 11 20 16 20 2 0 15 -5 29 -12z m845 -24 c0 -45 -24 -42 -28 4 -2
24 1 32 12 32 12 0 16 -10 16 -36z m-1750 -9 c0 -24 -5 -35 -15 -35 -15 0 -22
50 -8 63 15 15 23 5 23 -28z m1016 -9 c10 -8 16 -18 12 -21 -12 -12 -58 4 -58
20 0 19 20 19 46 1z m-481 -9 c30 -23 9 -40 -26 -22 -16 9 -27 20 -24 25 9 14
28 12 50 -3z m591 -31 c10 -8 16 -18 11 -22 -10 -10 -59 8 -65 24 -5 17 30 15
54 -2z m-501 -18 c26 -12 35 -38 12 -38 -20 0 -58 30 -52 41 8 11 9 11 40 -3z
m1125 -10 c0 -30 -13 -58 -26 -58 -15 0 -17 12 -8 48 7 23 34 31 34 10z
m-1759 -8 c5 -41 2 -55 -11 -55 -16 0 -25 28 -16 51 6 16 25 19 27 4z m1245
-4 c17 -13 17 -15 2 -21 -18 -7 -58 10 -58 25 0 15 33 12 56 -4z m-511 -32
c29 -19 32 -34 8 -34 -25 1 -56 26 -48 39 8 14 11 14 40 -5z m625 -14 c0 -17
-19 -20 -44 -9 -26 12 -31 20 -20 32 8 7 64 -13 64 -23z m79 -21 c34 -12 42
-29 12 -29 -30 0 -51 11 -51 26 0 17 -1 17 39 3z m-605 -15 c9 -3 16 -12 16
-19 0 -6 9 -20 19 -29 14 -13 20 -14 23 -4 6 18 58 -6 58 -27 0 -18 -5 -19
-31 -4 -20 10 -20 9 -5 -20 18 -35 21 -117 5 -158 -25 -68 -95 -113 -174 -113
-74 0 -138 46 -169 122 -22 52 -20 86 10 146 31 63 79 95 154 103 30 3 60 7
67 8 6 0 18 -2 27 -5z m896 -28 c0 -26 -24 -53 -34 -37 -8 13 11 61 24 61 5 0
10 -11 10 -24z m-1410 -35 c46 -36 70 -85 70 -144 0 -115 -86 -193 -202 -185
-32 2 -58 1 -58 -4 0 -4 -6 -8 -12 -8 -18 1 -87 122 -98 173 -5 23 -12 54 -16
70 -5 23 -3 27 14 27 11 0 23 8 26 18 11 33 64 75 113 87 60 15 116 4 163 -34z
m1231 39 c23 -13 25 -30 3 -30 -23 0 -55 20 -49 31 8 12 22 12 46 -1z m-1541
-29 c0 -34 -15 -49 -24 -25 -11 28 -6 54 9 54 10 0 15 -10 15 -29z m1655 -14
c12 -9 14 -16 7 -21 -17 -10 -62 4 -62 20 0 18 31 18 55 1z m-640 -39 c25 -11
35 -38 14 -38 -20 0 -49 21 -49 35 0 18 2 18 35 3z m110 -61 c10 -8 15 -19 11
-25 -9 -15 -56 6 -56 25 0 17 21 17 45 0z m90 -49 c27 -12 32 -23 15 -33 -14
-9 -62 23 -55 35 8 12 9 12 40 -2z m100 -54 c29 -19 32 -34 7 -34 -26 0 -56
25 -48 38 9 15 12 15 41 -4z m108 -62 c10 -10 14 -21 11 -25 -9 -8 -64 21 -64
33 0 17 36 11 53 -8z m88 -42 c16 -9 28 -40 14 -40 -16 0 -55 26 -55 37 0 16
14 17 41 3z m-1341 -85 c7 -14 10 -28 7 -32 -9 -8 -47 27 -47 44 0 22 26 15
40 -12z m954 -8 c68 -53 94 -144 62 -221 -10 -25 -11 -37 -3 -45 7 -7 7 -14 2
-20 -14 -11 -111 -43 -165 -52 -25 -5 -60 -11 -77 -15 -26 -5 -33 -3 -33 9 0
8 5 17 12 19 6 2 -3 14 -20 27 -67 48 -92 153 -53 229 38 74 92 104 177 100
49 -3 69 -10 98 -31z m396 15 c0 -25 -35 -58 -45 -42 -8 12 20 60 35 60 6 0
10 -8 10 -18z m-1260 -114 c0 -15 -27 -8 -44 11 -27 30 -9 47 20 20 13 -12 24
-26 24 -31z m1194 34 c8 -13 -23 -52 -40 -52 -19 0 -18 19 3 42 18 20 29 23
37 10z m-1132 -79 c21 -19 23 -33 5 -33 -18 0 -49 34 -40 43 9 10 14 9 35 -10z
m1051 0 c8 -7 -31 -53 -45 -53 -13 0 -9 22 9 42 17 19 26 22 36 11z m-948 -66
c10 -8 15 -19 11 -25 -8 -14 -66 12 -66 28 0 14 33 12 55 -3z m865 -7 c0 -5
-11 -17 -26 -26 -34 -23 -56 -4 -23 20 26 18 49 21 49 6z m-756 -51 c16 -15
-3 -23 -31 -13 -39 13 -44 39 -7 30 16 -4 33 -12 38 -17z m92 -29 c18 -7 24
-14 17 -21 -14 -14 -63 0 -63 17 0 17 10 17 46 4z m122 -38 c3 -10 -5 -13 -29
-10 -18 2 -34 9 -37 16 -3 10 5 13 29 10 18 -2 34 -9 37 -16z m117 -7 c0 -12
-40 -19 -61 -11 -9 3 -12 11 -9 16 8 14 70 9 70 -5z"/>
<path d="M2185 4255 c-72 -39 -101 -93 -93 -175 6 -60 39 -107 92 -131 54 -25
93 -24 146 4 61 31 83 65 88 135 5 70 -11 108 -64 148 -45 34 -124 43 -169 19z"/>
<path d="M1676 4087 c-87 -49 -111 -168 -49 -245 82 -101 222 -87 281 28 74
144 -90 298 -232 217z"/>
<path d="M2622 3839 c-60 -30 -86 -70 -90 -144 -3 -50 0 -66 20 -95 13 -19 39
-45 58 -58 29 -20 44 -23 93 -20 92 7 147 60 155 151 11 134 -119 226 -236
166z"/>
<path d="M1914 3281 c-55 -34 -79 -78 -79 -147 0 -51 4 -66 28 -97 37 -49 75
-67 140 -67 44 0 62 6 94 29 42 30 73 89 73 139 0 42 -41 114 -79 139 -44 30
-132 32 -177 4z"/>
<path d="M1414 3281 c-43 -11 -79 -39 -103 -82 -26 -46 -27 -89 -2 -130 11
-17 17 -37 15 -44 -7 -18 51 -63 92 -71 110 -20 204 52 204 159 0 114 -98 193
-206 168z"/>
<path d="M2225 2869 c-68 -22 -115 -89 -115 -165 0 -59 26 -105 80 -142 35
-24 45 -25 149 -7 54 9 101 79 101 151 0 113 -111 197 -215 163z"/>
<path d="M4541 4320 c-45 -33 -54 -71 -19 -78 28 -5 109 58 106 83 -5 31 -39
29 -87 -5z"/>
<path d="M4735 4228 c-54 -36 -64 -53 -42 -76 14 -13 20 -14 39 -3 50 27 89
66 83 83 -11 29 -32 28 -80 -4z"/>
<path d="M4321 4125 c-41 -44 -45 -68 -14 -79 17 -7 74 36 93 71 7 12 10 29 7
37 -11 28 -43 17 -86 -29z"/>
<path d="M4506 4031 c-41 -42 -45 -74 -11 -79 28 -4 108 78 99 101 -11 29 -48
19 -88 -22z"/>
<path d="M4126 3913 c-38 -49 -40 -60 -13 -77 13 -8 24 -3 53 24 48 47 59 68
43 86 -21 25 -45 15 -83 -33z"/>
<path d="M4313 3821 c-35 -41 -40 -60 -21 -79 18 -18 23 -16 67 31 47 48 51
81 11 84 -18 1 -34 -9 -57 -36z"/>
<path d="M3947 3702 c-44 -45 -48 -85 -10 -90 15 -2 31 9 57 44 20 26 35 55
34 63 -6 31 -42 23 -81 -17z"/>
<path d="M4131 3605 c-45 -49 -50 -78 -13 -83 28 -4 91 61 92 94 0 18 -17 34
-35 34 -1 0 -21 -20 -44 -45z"/>
<path d="M3752 3486 c-45 -49 -48 -56 -30 -74 22 -22 45 -12 83 34 30 36 36
50 28 63 -18 29 -39 23 -81 -23z"/>
<path d="M3937 3392 c-40 -40 -46 -62 -23 -81 19 -16 44 -3 80 40 58 69 6 106
-57 41z"/>
<path d="M3541 3292 c-29 -26 -42 -44 -40 -57 7 -32 37 -29 84 7 35 25 44 39
42 58 -3 38 -36 35 -86 -8z"/>
<path d="M3722 3191 c-42 -39 -47 -63 -15 -75 17 -7 28 -1 69 34 38 32 45 45
38 64 -10 27 -47 18 -92 -23z"/>
<path d="M3302 3133 c-33 -19 -42 -30 -40 -47 4 -31 37 -31 92 0 36 20 46 31
44 48 -4 30 -44 30 -96 -1z"/>
<path d="M3493 3038 c-55 -31 -64 -47 -37 -69 13 -10 24 -8 70 14 43 21 54 32
54 51 0 18 -20 40 -33 35 -1 0 -26 -14 -54 -31z"/>
<path d="M3085 3045 c-5 -2 -29 -9 -52 -15 -45 -11 -57 -36 -30 -58 18 -15
117 8 130 30 18 27 -14 55 -48 43z"/>
<path d="M3230 2939 c-44 -13 -63 -31 -54 -52 7 -20 52 -22 104 -4 27 9 35 17
35 37 0 29 -27 35 -85 19z"/>
<path d="M3709 2686 c-144 -59 -259 -158 -259 -223 0 -96 330 50 403 178 18
31 19 39 8 53 -19 23 -86 20 -152 -8z"/>
<path d="M4195 2635 c-82 -81 -222 -189 -350 -270 -126 -79 -372 -200 -480
-235 l-90 -29 56 -1 c87 0 219 42 374 120 228 115 425 272 519 413 26 40 42
55 48 49 7 -7 3 -23 -13 -48 -106 -172 -370 -374 -641 -490 -156 -67 -335 -95
-357 -56 -6 9 -11 14 -11 10 0 -4 9 -22 20 -40 18 -30 21 -32 77 -29 145 7
329 73 516 187 172 105 335 248 402 354 16 25 31 47 32 49 2 3 8 0 14 -6 32
-32 -185 -259 -356 -372 -230 -152 -493 -254 -619 -239 -34 4 -34 4 -21 -22
14 -26 14 -26 91 -18 106 11 183 32 294 81 233 101 463 269 580 425 27 35 51
69 53 75 3 9 7 9 17 0 28 -26 -135 -211 -289 -326 -213 -159 -532 -294 -672
-285 l-45 3 14 -25 c15 -26 15 -26 100 -17 289 30 736 301 887 537 16 25 31
47 32 49 2 3 8 0 15 -7 16 -16 -64 -123 -167 -220 -94 -89 -263 -206 -390
-270 -150 -75 -347 -131 -422 -120 l-30 4 19 -33 c11 -18 22 -33 25 -33 2 0 2
4 -1 9 -3 4 26 11 64 14 158 13 365 98 567 233 163 108 264 207 360 353 2 3 8
0 15 -7 17 -17 -53 -111 -160 -213 -216 -205 -548 -375 -773 -395 -61 -6 -67
-9 -59 -24 20 -38 211 -6 370 62 248 105 507 300 614 462 27 41 41 54 47 45
10 -17 -3 -40 -68 -122 -169 -211 -575 -452 -810 -482 -95 -12 -108 -12 -122
-1 -10 8 -10 2 3 -21 15 -30 21 -33 62 -33 265 0 737 270 921 527 24 35 49 63
54 63 19 0 7 -30 -34 -86 -186 -253 -606 -500 -899 -530 -62 -6 -67 -8 -57
-25 12 -24 70 -25 176 -3 144 30 316 107 486 221 112 74 267 217 322 298 38
54 55 67 55 42 0 -40 -147 -204 -260 -292 -220 -170 -491 -294 -681 -311 -64
-6 -67 -8 -56 -26 11 -18 20 -19 87 -14 169 14 369 96 587 243 107 72 257 213
311 294 30 44 43 57 48 46 10 -28 -28 -81 -140 -193 -219 -218 -545 -392 -784
-418 -44 -5 -68 -3 -78 5 -11 9 -11 5 2 -17 l17 -29 86 7 c181 14 384 101 608
260 105 74 249 214 287 281 26 43 46 54 46 23 0 -7 -22 -42 -49 -78 -195 -257
-654 -518 -912 -518 -47 0 -49 -1 -39 -20 12 -23 49 -26 149 -9 216 35 531
209 722 399 52 52 108 116 123 143 26 43 46 54 46 23 0 -7 -22 -42 -48 -77
-181 -239 -573 -477 -858 -521 -59 -9 -80 -9 -95 0 -19 12 -19 12 -3 -19 l16
-32 76 6 c280 22 720 283 893 531 37 53 50 65 55 52 18 -46 -185 -258 -355
-371 -198 -132 -380 -210 -548 -236 -69 -10 -85 -10 -99 2 -16 13 -16 12 0
-18 14 -29 22 -33 55 -33 272 0 749 273 932 534 37 53 50 65 55 52 15 -40
-140 -213 -291 -326 -111 -82 -274 -174 -393 -221 -120 -47 -285 -78 -315 -60
-18 12 -18 12 -2 -16 l17 -28 81 6 c108 9 156 21 258 64 264 111 528 305 634
468 23 35 42 54 47 49 26 -26 -100 -177 -246 -294 -231 -185 -545 -326 -706
-316 l-58 3 15 -25 c15 -26 15 -26 105 -18 290 26 725 292 893 545 26 40 45
48 45 20 0 -7 -29 -49 -64 -93 -189 -239 -611 -483 -868 -501 -74 -6 -76 -7
-67 -27 10 -20 15 -21 98 -15 285 23 721 287 891 539 12 19 29 40 36 46 10 8
1 30 -42 103 -30 50 -54 95 -54 100 0 4 22 26 48 48 26 22 68 67 92 99 63 84
60 81 76 60 13 -19 14 -19 14 6 0 15 -5 30 -10 33 -7 4 -7 12 0 25 5 10 10 40
9 67 l0 48 -17 -44 c-9 -24 -21 -46 -27 -47 -14 -4 -88 90 -120 153 -20 38
-25 59 -20 82 9 41 42 81 67 81 30 0 76 -37 98 -78 l19 -37 1 36 c0 30 -7 43
-40 73 -70 63 -143 40 -171 -53 -20 -67 13 -142 112 -255 l42 -47 -37 -54
c-43 -62 -142 -158 -157 -153 -6 2 -114 179 -240 393 -127 215 -233 395 -237
400 -4 6 -37 -20 -77 -60z"/>
<path d="M1465 1962 c-11 -2 -23 -9 -27 -16 -6 -8 -8 -8 -8 1 0 9 -11 8 -42
-3 -24 -9 -47 -17 -53 -19 -46 -14 -55 -18 -55 -26 0 -5 -7 -6 -16 -2 -10 4
-22 0 -28 -9 -6 -8 -24 -21 -41 -29 -16 -9 -29 -20 -28 -27 2 -7 -4 -9 -14 -5
-12 5 -15 2 -10 -10 4 -11 2 -14 -9 -10 -7 3 -14 0 -14 -7 0 -6 -4 -8 -10 -5
-13 8 -13 -8 0 -21 7 -7 6 -11 -4 -11 -8 0 -13 4 -10 9 8 12 -10 10 -24 -4
-15 -15 -16 -32 -2 -23 6 3 10 4 10 1 0 -3 -17 -17 -37 -31 -21 -14 -33 -25
-28 -25 6 0 4 -4 -4 -9 -7 -5 -13 -21 -13 -36 -1 -17 -3 -22 -8 -15 -6 9 -12
6 -21 -11 -7 -13 -12 -27 -11 -31 1 -5 -2 -8 -6 -8 -13 0 -45 -77 -38 -89 4
-6 2 -11 -5 -11 -6 0 -9 -8 -6 -20 3 -10 0 -21 -6 -23 -6 -2 -10 -48 -11 -123
0 -139 5 -194 17 -194 4 0 5 -5 2 -11 -4 -6 1 -17 11 -25 11 -9 13 -13 7 -9
-8 4 -13 0 -13 -10 0 -9 5 -13 11 -10 6 4 10 1 8 -6 -3 -28 1 -50 10 -45 5 3
12 -1 15 -10 4 -10 2 -13 -6 -8 -6 4 0 -12 12 -34 13 -23 27 -42 32 -42 4 0 8
-7 8 -15 0 -8 5 -15 11 -15 5 0 7 -5 3 -12 -5 -8 -2 -9 9 -5 9 3 16 3 15 -1
-3 -14 14 -42 23 -36 5 3 6 -1 3 -9 -3 -8 2 -20 11 -27 12 -10 18 -10 32 1 12
10 15 11 9 1 -4 -7 -1 -23 8 -37 12 -19 23 -24 46 -21 17 2 27 -1 24 -6 -3 -5
-13 -7 -21 -3 -13 4 -14 3 -3 -10 7 -8 18 -15 25 -15 7 0 18 -7 25 -15 7 -9
19 -14 27 -11 8 3 12 2 9 -3 -7 -10 51 -37 124 -56 78 -22 215 -29 280 -16 96
19 151 37 143 46 -4 4 -3 5 4 2 15 -9 45 2 37 14 -3 5 2 6 10 3 10 -4 28 7 49
30 33 35 62 51 37 21 -19 -23 -4 -18 24 8 14 12 38 32 55 45 18 14 28 29 24
38 -3 9 0 12 9 9 8 -3 21 1 28 10 7 8 10 15 6 15 -3 0 3 9 14 20 12 12 18 25
15 30 -3 5 0 12 6 16 8 5 9 3 4 -7 -8 -12 -6 -12 8 0 10 8 15 16 13 18 -3 3
11 34 30 70 19 36 34 75 34 87 0 12 4 26 9 31 18 19 31 167 21 235 -5 36 -10
71 -10 78 0 7 -5 10 -10 7 -7 -4 -9 2 -4 19 4 16 1 32 -6 41 -7 8 -9 15 -5 15
4 0 2 6 -4 13 -6 8 -8 16 -6 19 8 8 -16 58 -27 58 -5 0 -7 4 -4 8 7 11 -31 71
-49 78 -8 4 -13 9 -10 14 7 11 -64 90 -81 90 -9 0 -13 4 -10 9 3 5 -2 15 -11
22 -14 12 -16 12 -8 -1 6 -12 5 -13 -6 -2 -16 15 -33 16 -23 0 4 -7 3 -8 -5
-4 -9 6 -9 11 0 22 9 11 8 14 -5 14 -11 0 -14 4 -10 13 5 7 0 6 -11 -3 -10 -8
-16 -10 -12 -3 8 12 -50 59 -60 49 -4 -3 -14 1 -23 9 -10 9 -30 18 -45 21 -16
3 -37 10 -49 16 -15 8 -21 8 -24 -1 -3 -8 -8 -6 -17 5 -10 14 -31 18 -116 19
-57 1 -113 0 -124 -3z m-18 -168 c-3 -3 -12 -4 -19 -1 -8 3 -5 6 6 6 11 1 17
-2 13 -5z m334 -39 c19 -8 27 -14 19 -14 -14 0 -72 28 -59 29 4 0 22 -7 40
-15z m272 -5 c9 -11 13 -20 7 -20 -5 0 -14 9 -20 20 -6 11 -9 20 -8 20 2 0 11
-9 21 -20z m34 -72 c-3 -8 -6 -5 -6 6 -1 11 2 17 5 13 3 -3 4 -12 1 -19z m38
-18 c3 -5 1 -10 -4 -10 -6 0 -11 5 -11 10 0 6 2 10 4 10 3 0 8 -4 11 -10z
m-955 -21 c-7 -11 -14 -18 -17 -15 -3 3 0 12 7 21 18 21 23 19 10 -6z m785
-10 c11 -17 -1 -21 -15 -4 -8 9 -8 15 -2 15 6 0 14 -5 17 -11z m-928 -21 c-3
-8 -6 -5 -6 6 -1 11 2 17 5 13 3 -3 4 -12 1 -19z m106 -13 c-3 -9 -8 -14 -10
-11 -3 3 -2 9 2 15 9 16 15 13 8 -4z m864 -22 c1 -22 -1 -24 -8 -10 -6 9 -7
22 -4 27 9 14 10 13 12 -17z m-532 -13 c18 -11 36 -27 39 -35 7 -18 11 -19
-52 5 -29 11 -63 20 -76 20 -23 0 -41 -23 -31 -40 3 -4 -2 -11 -11 -14 -9 -3
-14 -15 -12 -28 2 -16 17 -28 56 -43 28 -11 58 -29 66 -40 13 -19 12 -21 -12
-22 -24 -2 -25 -1 -7 7 27 12 7 12 -33 1 -39 -12 -88 3 -102 29 -6 10 -10 37
-10 59 0 33 7 47 38 81 32 33 46 40 77 40 21 0 52 -9 70 -20z m712 -152 c-3
-7 -5 -2 -5 12 0 14 2 19 5 13 2 -7 2 -19 0 -25z m-414 -67 c15 -10 35 -28 43
-40 23 -32 20 -94 -6 -130 -21 -31 -60 -59 -60 -44 0 14 14 29 33 36 32 12 18
63 -45 155 -25 36 -27 42 -11 42 10 0 31 -8 46 -19z m-746 -88 c-2 -16 -4 -5
-4 22 0 28 2 40 4 28 2 -13 2 -35 0 -50z m623 -60 c7 -15 28 -40 44 -55 28
-25 29 -27 10 -28 -41 0 -104 70 -104 115 0 24 33 3 50 -32z m-616 -22 c3 -5
-1 -11 -9 -14 -9 -4 -12 -1 -8 9 6 16 10 17 17 5z m969 -216 c-3 -9 -8 -14
-10 -11 -3 3 -2 9 2 15 9 16 15 13 8 -4z m-966 -27 c-3 -7 -5 -2 -5 12 0 14 2
19 5 13 2 -7 2 -19 0 -25z m123 -53 c13 -14 21 -25 18 -25 -2 0 -15 11 -28 25
-13 14 -21 25 -18 25 2 0 15 -11 28 -25z m760 -18 c0 -2 -15 -14 -32 -27 l-33
-23 24 26 c21 23 41 35 41 24z m-130 -81 c0 -2 -7 -7 -16 -10 -8 -3 -12 -2 -9
4 6 10 25 14 25 6z m-433 -12 c-3 -3 -12 -4 -19 -1 -8 3 -5 6 6 6 11 1 17 -2
13 -5z m100 -30 c-3 -3 -12 -4 -19 -1 -8 3 -5 6 6 6 11 1 17 -2 13 -5z m193
-4 c0 -6 -30 -9 -72 -8 l-73 2 70 6 c39 4 71 7 73 8 1 1 2 -2 2 -8z"/>
<path d="M4872 1621 c-7 -16 -39 -59 -70 -97 -204 -243 -646 -484 -888 -484
-43 0 -44 -1 -33 -21 11 -21 17 -21 98 -16 275 18 735 295 891 535 18 29 37
52 42 52 20 0 4 -41 -43 -102 -178 -238 -616 -495 -878 -515 l-80 -6 16 -23
c20 -31 68 -32 201 -4 229 46 439 164 635 356 91 90 187 209 187 233 0 11 -57
121 -63 121 -1 0 -8 -13 -15 -29z"/>
</g>
</svg>
